<svg width="34" height="24" viewBox="0 0 34 24" fill="none" xmlns="http://www.w3.org/2000/svg">
<path d="M1.23511 19.1317C1.34763 19.1424 1.46062 19.1472 1.57363 19.1462C2.418 19.1462 4.72138 18.9276 7.41552 16.8341C8.24655 16.9925 9.08627 17.1014 9.93023 17.16C7.75292 13.3277 7.01802 5.22604 21.497 3.47805C19.2284 1.268 15.7387 0 11.9217 0C5.34813 0 0 3.86638 0 8.61919C0.0294284 9.65691 0.279924 10.6764 0.734759 11.6096C1.18959 12.5428 1.8383 13.3682 2.63755 14.0307C2.66187 14.8223 2.52429 15.6106 2.23324 16.3472C1.9422 17.0838 1.50381 17.7532 0.944954 18.3144C0.882077 18.3791 0.838556 18.4601 0.819311 18.5483C0.800066 18.6364 0.805864 18.7282 0.836051 18.8132C0.866237 18.8982 0.919608 18.9731 0.990129 19.0294C1.06065 19.0857 1.14551 19.1211 1.23511 19.1317Z" fill="#51CBCE"/>
<path d="M32.1909 23.9996C31.2831 23.9996 28.7878 23.7641 25.8659 21.4883C24.2534 21.783 22.6178 21.933 20.9786 21.9366C16.1658 21.9366 11.7965 20.0307 9.57532 16.9637C8.63443 15.7159 8.11756 14.1997 8.10034 12.6369C8.10034 7.51078 13.8774 3.33731 20.9786 3.33731C21.0502 3.33731 21.1275 3.33731 21.1986 3.34408C21.6049 3.34408 22.0633 3.36391 22.5634 3.40695C25.7339 3.56047 32.4041 5.35744 33.721 11.3172C33.8097 11.7515 33.8536 12.1937 33.852 12.6369C33.852 14.7648 32.8423 16.8312 31.0051 18.4783C30.9726 19.3447 31.1193 20.2085 31.4359 21.0157C31.7525 21.8228 32.2323 22.556 32.8452 23.1692C32.9081 23.2341 32.9516 23.3153 32.9707 23.4037C32.9899 23.492 32.9839 23.5839 32.9534 23.669C32.9229 23.7541 32.8692 23.829 32.7984 23.8851C32.7276 23.9412 32.6424 23.9763 32.5526 23.9865C32.4323 23.9971 32.3116 24.0014 32.1909 23.9996Z" fill="#3B4443"/>
<path d="M21.5777 11.0978H13.3898C13.1938 11.0978 13.0059 11.0342 12.8674 10.9209C12.7288 10.8076 12.651 10.6539 12.651 10.4937C12.651 10.3335 12.7288 10.1798 12.8674 10.0666C13.0059 9.95326 13.1938 9.88962 13.3898 9.88962H21.5777C21.7737 9.88962 21.9616 9.95326 22.1001 10.0666C22.2387 10.1798 22.3165 10.3335 22.3165 10.4937C22.3165 10.6539 22.2387 10.8076 22.1001 10.9209C21.9616 11.0342 21.7737 11.0978 21.5777 11.0978Z" fill="white"/>
<path d="M28.842 13.4471H13.3746C13.1827 13.4471 12.9986 13.3834 12.8629 13.2701C12.7272 13.1569 12.651 13.0032 12.651 12.843C12.651 12.6828 12.7272 12.5291 12.8629 12.4158C12.9986 12.3025 13.1827 12.2389 13.3746 12.2389H28.842C29.0339 12.2389 29.218 12.3025 29.3537 12.4158C29.4894 12.5291 29.5657 12.6828 29.5657 12.843C29.5657 13.0032 29.4894 13.1569 29.3537 13.2701C29.218 13.3834 29.0339 13.4471 28.842 13.4471Z" fill="white"/>
<path d="M28.842 15.7963H13.3746C13.1827 15.7963 12.9986 15.7327 12.8629 15.6194C12.7272 15.5061 12.651 15.3524 12.651 15.1922C12.651 15.032 12.7272 14.8784 12.8629 14.7651C12.9986 14.6518 13.1827 14.5881 13.3746 14.5881H28.842C29.0339 14.5881 29.218 14.6518 29.3537 14.7651C29.4894 14.8784 29.5657 15.032 29.5657 15.1922C29.5657 15.3524 29.4894 15.5061 29.3537 15.6194C29.218 15.7327 29.0339 15.7963 28.842 15.7963Z" fill="white"/>
</svg>
