<svg width="239" height="239" viewBox="0 0 239 239" fill="none" xmlns="http://www.w3.org/2000/svg">
<circle cx="119.5" cy="119.5" r="119" stroke="#E5E5E5"/>
<path d="M78.54 129.164H91.0059V132H75.0532V105.695H78.54V129.164ZM114.004 119.697C114.004 122.274 113.571 124.527 112.704 126.454C111.836 128.369 110.608 129.832 109.018 130.844C107.428 131.855 105.573 132.361 103.454 132.361C101.382 132.361 99.5452 131.855 97.9434 130.844C96.3415 129.82 95.0949 128.369 94.2036 126.49C93.3244 124.599 92.8727 122.413 92.8486 119.932V118.035C92.8486 115.505 93.2882 113.271 94.1675 111.332C95.0467 109.393 96.2873 107.911 97.8892 106.888C99.5031 105.852 101.346 105.334 103.417 105.334C105.525 105.334 107.38 105.846 108.982 106.87C110.596 107.881 111.836 109.357 112.704 111.296C113.571 113.223 114.004 115.469 114.004 118.035V119.697ZM110.554 117.999C110.554 114.879 109.927 112.488 108.675 110.826C107.422 109.152 105.67 108.315 103.417 108.315C101.225 108.315 99.4971 109.152 98.2324 110.826C96.9798 112.488 96.3354 114.801 96.2993 117.764V119.697C96.2993 122.72 96.9316 125.099 98.1963 126.833C99.473 128.555 101.225 129.417 103.454 129.417C105.694 129.417 107.428 128.604 108.657 126.978C109.885 125.34 110.518 122.997 110.554 119.95V117.999ZM138.629 128.549C137.738 129.826 136.491 130.784 134.889 131.422C133.299 132.048 131.444 132.361 129.325 132.361C127.181 132.361 125.278 131.861 123.616 130.862C121.954 129.85 120.665 128.417 119.75 126.562C118.846 124.707 118.382 122.557 118.358 120.112V117.818C118.358 113.855 119.28 110.784 121.123 108.604C122.977 106.424 125.579 105.334 128.927 105.334C131.673 105.334 133.883 106.039 135.558 107.448C137.232 108.845 138.256 110.832 138.629 113.41H135.16C134.51 109.929 132.438 108.188 128.945 108.188C126.621 108.188 124.856 109.007 123.652 110.646C122.459 112.271 121.857 114.632 121.845 117.728V119.877C121.845 122.828 122.52 125.177 123.869 126.923C125.218 128.658 127.042 129.525 129.343 129.525C130.644 129.525 131.782 129.38 132.757 129.091C133.733 128.802 134.54 128.314 135.178 127.628V121.72H129.09V118.902H138.629V128.549ZM164.663 119.697C164.663 122.274 164.229 124.527 163.362 126.454C162.495 128.369 161.266 129.832 159.676 130.844C158.086 131.855 156.232 132.361 154.112 132.361C152.04 132.361 150.203 131.855 148.602 130.844C147 129.82 145.753 128.369 144.862 126.49C143.983 124.599 143.531 122.413 143.507 119.932V118.035C143.507 115.505 143.946 113.271 144.826 111.332C145.705 109.393 146.945 107.911 148.547 106.888C150.161 105.852 152.004 105.334 154.076 105.334C156.183 105.334 158.038 105.846 159.64 106.87C161.254 107.881 162.495 109.357 163.362 111.296C164.229 113.223 164.663 115.469 164.663 118.035V119.697ZM161.212 117.999C161.212 114.879 160.586 112.488 159.333 110.826C158.08 109.152 156.328 108.315 154.076 108.315C151.884 108.315 150.155 109.152 148.891 110.826C147.638 112.488 146.994 114.801 146.958 117.764V119.697C146.958 122.72 147.59 125.099 148.854 126.833C150.131 128.555 151.884 129.417 154.112 129.417C156.352 129.417 158.086 128.604 159.315 126.978C160.543 125.34 161.176 122.997 161.212 119.95V117.999Z" fill="#E5E5E5"/>
</svg>
