<svg width="54" height="54" viewBox="0 0 54 54" fill="none" xmlns="http://www.w3.org/2000/svg">
<g filter="url(#filter0_d)">
<rect width="48" height="48" rx="3" fill="white"/>
</g>
<path d="M8.23511 32.1317C8.34763 32.1424 8.46062 32.1472 8.57363 32.1462C9.418 32.1462 11.7214 31.9276 14.4155 29.8341C15.2465 29.9925 16.0863 30.1014 16.9302 30.16C14.7529 26.3277 14.018 18.226 28.497 16.478C26.2284 14.268 22.7387 13 18.9217 13C12.3481 13 7 16.8664 7 21.6192C7.02943 22.6569 7.27992 23.6764 7.73476 24.6096C8.18959 25.5428 8.8383 26.3682 9.63755 27.0307C9.66187 27.8223 9.52429 28.6106 9.23324 29.3472C8.9422 30.0838 8.50381 30.7532 7.94495 31.3144C7.88208 31.3791 7.83856 31.4601 7.81931 31.5483C7.80007 31.6364 7.80586 31.7282 7.83605 31.8132C7.86624 31.8982 7.91961 31.9731 7.99013 32.0294C8.06065 32.0857 8.14551 32.1211 8.23511 32.1317Z" fill="#51CBCE"/>
<path d="M39.1908 36.9996C38.2831 36.9996 35.7877 36.7641 32.8658 34.4883C31.2534 34.783 29.6178 34.933 27.9786 34.9366C23.1658 34.9366 18.7965 33.0307 16.5753 29.9637C15.6344 28.7159 15.1175 27.1997 15.1003 25.6369C15.1003 20.5108 20.8774 16.3373 27.9786 16.3373C28.0501 16.3373 28.1275 16.3373 28.1986 16.3441C28.6048 16.3441 29.0633 16.3639 29.5633 16.4069C32.7338 16.5605 39.4041 18.3574 40.7209 24.3172C40.8097 24.7515 40.8536 25.1937 40.852 25.6369C40.852 27.7648 39.8422 29.8312 38.005 31.4783C37.9726 32.3447 38.1193 33.2085 38.4359 34.0157C38.7525 34.8228 39.2322 35.556 39.8451 36.1692C39.9081 36.2341 39.9516 36.3153 39.9707 36.4037C39.9898 36.492 39.9838 36.5839 39.9534 36.669C39.9229 36.7541 39.8692 36.829 39.7984 36.8851C39.7275 36.9412 39.6424 36.9763 39.5526 36.9865C39.4323 36.9971 39.3116 37.0014 39.1908 36.9996Z" fill="#3B4443"/>
<path d="M28.5778 24.0978H20.3898C20.1939 24.0978 20.006 24.0342 19.8674 23.9209C19.7289 23.8076 19.651 23.6539 19.651 23.4937C19.651 23.3335 19.7289 23.1798 19.8674 23.0666C20.006 22.9533 20.1939 22.8896 20.3898 22.8896H28.5778C28.7737 22.8896 28.9616 22.9533 29.1002 23.0666C29.2387 23.1798 29.3165 23.3335 29.3165 23.4937C29.3165 23.6539 29.2387 23.8076 29.1002 23.9209C28.9616 24.0342 28.7737 24.0978 28.5778 24.0978Z" fill="white"/>
<path d="M35.842 26.4471H20.3746C20.1827 26.4471 19.9986 26.3834 19.8629 26.2701C19.7272 26.1569 19.651 26.0032 19.651 25.843C19.651 25.6828 19.7272 25.5291 19.8629 25.4158C19.9986 25.3025 20.1827 25.2389 20.3746 25.2389H35.842C36.0339 25.2389 36.218 25.3025 36.3537 25.4158C36.4894 25.5291 36.5657 25.6828 36.5657 25.843C36.5657 26.0032 36.4894 26.1569 36.3537 26.2701C36.218 26.3834 36.0339 26.4471 35.842 26.4471Z" fill="white"/>
<path d="M35.842 28.7963H20.3746C20.1827 28.7963 19.9986 28.7327 19.8629 28.6194C19.7272 28.5061 19.651 28.3524 19.651 28.1922C19.651 28.032 19.7272 27.8784 19.8629 27.7651C19.9986 27.6518 20.1827 27.5881 20.3746 27.5881H35.842C36.0339 27.5881 36.218 27.6518 36.3537 27.7651C36.4894 27.8784 36.5657 28.032 36.5657 28.1922C36.5657 28.3524 36.4894 28.5061 36.3537 28.6194C36.218 28.7327 36.0339 28.7963 35.842 28.7963Z" fill="white"/>
<defs>
<filter id="filter0_d" x="0" y="0" width="54" height="54" filterUnits="userSpaceOnUse" color-interpolation-filters="sRGB">
<feFlood flood-opacity="0" result="BackgroundImageFix"/>
<feColorMatrix in="SourceAlpha" type="matrix" values="0 0 0 0 0 0 0 0 0 0 0 0 0 0 0 0 0 0 127 0"/>
<feOffset dx="3" dy="3"/>
<feGaussianBlur stdDeviation="1.5"/>
<feColorMatrix type="matrix" values="0 0 0 0 0.231912 0 0 0 0 0.266949 0 0 0 0 0.262827 0 0 0 0.1 0"/>
<feBlend mode="normal" in2="BackgroundImageFix" result="effect1_dropShadow"/>
<feBlend mode="normal" in="SourceGraphic" in2="effect1_dropShadow" result="shape"/>
</filter>
</defs>
</svg>
