<svg width="12" height="11" viewBox="0 0 11 9" fill="none" xmlns="http://www.w3.org/2000/svg">
<path d="M4.09388 8.56926L4.09342 8.56973C4.04053 8.6229 3.9678 8.65311 3.89163 8.65311C3.81545 8.65311 3.74272 8.6229 3.68983 8.56973L3.68938 8.56927L0.662419 5.54177L0.662403 5.54176C0.445782 5.32514 0.445999 4.97423 0.662252 4.75834L0.662403 4.75819L1.04144 4.37915C1.25798 4.16261 1.60847 4.16261 1.82501 4.37915L3.71485 6.26899L3.89163 6.44577L4.0684 6.26899L9.17499 1.1624C9.39161 0.945782 9.74252 0.945999 9.95841 1.16225L9.95856 1.1624L10.3376 1.54144C10.5542 1.75806 10.554 2.10898 10.3377 2.32486L10.3376 2.32502L4.09388 8.56926Z" fill="white" stroke="#51CBCE" stroke-width="0.5"/>
</svg>
