<svg width="25" height="25" viewBox="0 0 25 25" fill="none" xmlns="http://www.w3.org/2000/svg">
<mask id="path-1-inside-1" fill="white">
<path d="M22.6801 8.09257C22.5711 8.09273 22.4644 8.06104 22.3731 8.00139C22.2818 7.94174 22.21 7.85673 22.1664 7.7568C21.9518 7.25774 21.6981 6.77646 21.4075 6.31745C21.3276 6.19234 21.3007 6.04059 21.3326 5.8956C21.3646 5.75062 21.4528 5.62426 21.5779 5.54434C21.703 5.46441 21.8548 5.43747 21.9998 5.46942C22.1448 5.50138 22.2711 5.58962 22.351 5.71474C22.6724 6.22328 22.9531 6.75639 23.1905 7.3091C23.2276 7.39424 23.243 7.48729 23.2352 7.57986C23.2274 7.67243 23.1967 7.76161 23.1459 7.83935C23.095 7.91708 23.0256 7.98093 22.9439 8.02514C22.8622 8.06935 22.7708 8.09252 22.6779 8.09257H22.6801Z"/>
</mask>
<path d="M22.6801 8.09257C22.5711 8.09273 22.4644 8.06104 22.3731 8.00139C22.2818 7.94174 22.21 7.85673 22.1664 7.7568C21.9518 7.25774 21.6981 6.77646 21.4075 6.31745C21.3276 6.19234 21.3007 6.04059 21.3326 5.8956C21.3646 5.75062 21.4528 5.62426 21.5779 5.54434C21.703 5.46441 21.8548 5.43747 21.9998 5.46942C22.1448 5.50138 22.2711 5.58962 22.351 5.71474C22.6724 6.22328 22.9531 6.75639 23.1905 7.3091C23.2276 7.39424 23.243 7.48729 23.2352 7.57986C23.2274 7.67243 23.1967 7.76161 23.1459 7.83935C23.095 7.91708 23.0256 7.98093 22.9439 8.02514C22.8622 8.06935 22.7708 8.09252 22.6779 8.09257H22.6801Z" fill="#4F5756" stroke="#3B4443" stroke-width="0.2" mask="url(#path-1-inside-1)"/>
<mask id="path-2-inside-2" fill="white">
<path d="M12.0878 24.17C10.162 24.1682 8.26445 23.7067 6.55291 22.8239C4.84138 21.9411 3.36531 20.6624 2.24746 19.0942C0.781626 17.0525 -0.0046425 14.6013 2.06223e-05 12.0878C0.0037234 8.88305 1.27844 5.81062 3.54454 3.54452C5.81064 1.27842 8.88307 0.00370375 12.0878 9.80004e-07C12.6512 -0.000232084 13.2139 0.0411055 13.7712 0.123677C13.8438 0.134701 13.9136 0.159932 13.9766 0.197931C14.0395 0.235929 14.0943 0.285951 14.1379 0.34514C14.1815 0.404328 14.213 0.471525 14.2307 0.542893C14.2483 0.614261 14.2517 0.688403 14.2407 0.761084C14.2297 0.833766 14.2044 0.903566 14.1664 0.966496C14.1284 1.02943 14.0784 1.08426 14.0192 1.12786C13.96 1.17146 13.8928 1.20297 13.8215 1.2206C13.7501 1.23823 13.676 1.24163 13.6033 1.23061C13.1015 1.15646 12.595 1.11924 12.0878 1.11924C9.17978 1.1225 6.39177 2.27916 4.33548 4.33546C2.27918 6.39175 1.12252 9.17976 1.11926 12.0878C1.115 14.368 1.82846 16.5918 3.15852 18.444C4.17158 19.8682 5.51066 21.0295 7.06397 21.8308C8.61727 22.6321 10.3397 23.0502 12.0875 23.0502C13.8354 23.0502 15.5578 22.6321 17.1111 21.8308C18.6644 21.0295 20.0035 19.8682 21.0166 18.444C22.3467 16.5918 23.0603 14.3681 23.0564 12.0878C23.052 12.0563 23.0501 12.0245 23.0508 11.9927C23.0473 11.9192 23.0584 11.8457 23.0833 11.7765C23.1082 11.7073 23.1466 11.6437 23.1961 11.5892C23.2456 11.5348 23.3054 11.4907 23.3719 11.4594C23.4385 11.4281 23.5106 11.4102 23.5841 11.4067C23.6576 11.4033 23.731 11.4143 23.8003 11.4393C23.8695 11.4642 23.9331 11.5025 23.9875 11.5521C24.0419 11.6016 24.086 11.6613 24.1174 11.7279C24.1487 11.7945 24.1666 11.8666 24.17 11.9401C24.1761 11.9891 24.1787 12.0384 24.1779 12.0878C24.1817 14.6016 23.3944 17.0528 21.9276 19.0942C20.8099 20.6624 19.3339 21.941 17.6224 22.8238C15.911 23.7066 14.0135 24.1682 12.0878 24.17Z"/>
</mask>
<path d="M12.0878 24.17C10.162 24.1682 8.26445 23.7067 6.55291 22.8239C4.84138 21.9411 3.36531 20.6624 2.24746 19.0942C0.781626 17.0525 -0.0046425 14.6013 2.06223e-05 12.0878C0.0037234 8.88305 1.27844 5.81062 3.54454 3.54452C5.81064 1.27842 8.88307 0.00370375 12.0878 9.80004e-07C12.6512 -0.000232084 13.2139 0.0411055 13.7712 0.123677C13.8438 0.134701 13.9136 0.159932 13.9766 0.197931C14.0395 0.235929 14.0943 0.285951 14.1379 0.34514C14.1815 0.404328 14.213 0.471525 14.2307 0.542893C14.2483 0.614261 14.2517 0.688403 14.2407 0.761084C14.2297 0.833766 14.2044 0.903566 14.1664 0.966496C14.1284 1.02943 14.0784 1.08426 14.0192 1.12786C13.96 1.17146 13.8928 1.20297 13.8215 1.2206C13.7501 1.23823 13.676 1.24163 13.6033 1.23061C13.1015 1.15646 12.595 1.11924 12.0878 1.11924C9.17978 1.1225 6.39177 2.27916 4.33548 4.33546C2.27918 6.39175 1.12252 9.17976 1.11926 12.0878C1.115 14.368 1.82846 16.5918 3.15852 18.444C4.17158 19.8682 5.51066 21.0295 7.06397 21.8308C8.61727 22.6321 10.3397 23.0502 12.0875 23.0502C13.8354 23.0502 15.5578 22.6321 17.1111 21.8308C18.6644 21.0295 20.0035 19.8682 21.0166 18.444C22.3467 16.5918 23.0603 14.3681 23.0564 12.0878C23.052 12.0563 23.0501 12.0245 23.0508 11.9927C23.0473 11.9192 23.0584 11.8457 23.0833 11.7765C23.1082 11.7073 23.1466 11.6437 23.1961 11.5892C23.2456 11.5348 23.3054 11.4907 23.3719 11.4594C23.4385 11.4281 23.5106 11.4102 23.5841 11.4067C23.6576 11.4033 23.731 11.4143 23.8003 11.4393C23.8695 11.4642 23.9331 11.5025 23.9875 11.5521C24.0419 11.6016 24.086 11.6613 24.1174 11.7279C24.1487 11.7945 24.1666 11.8666 24.17 11.9401C24.1761 11.9891 24.1787 12.0384 24.1779 12.0878C24.1817 14.6016 23.3944 17.0528 21.9276 19.0942C20.8099 20.6624 19.3339 21.941 17.6224 22.8238C15.911 23.7066 14.0135 24.1682 12.0878 24.17Z" fill="#4F5756" stroke="#3B4443" stroke-width="0.2" mask="url(#path-2-inside-2)"/>
<mask id="path-3-inside-3" fill="white">
<path d="M19.2765 3.64318C19.1474 3.64316 19.0222 3.59847 18.9223 3.51671C18.5142 3.18423 18.0802 2.88482 17.6245 2.62131C17.5575 2.58633 17.4983 2.53812 17.4504 2.47961C17.4025 2.42111 17.367 2.3535 17.346 2.28089C17.3249 2.20827 17.3188 2.13215 17.328 2.05711C17.3372 1.98208 17.3616 1.90968 17.3995 1.8443C17.4375 1.77892 17.4883 1.7219 17.5489 1.6767C17.6094 1.63149 17.6786 1.59903 17.7521 1.58127C17.8255 1.56351 17.9019 1.56083 17.9764 1.57338C18.051 1.58593 18.1222 1.61345 18.1858 1.65429C18.6925 1.94783 19.1753 2.2809 19.6296 2.65041C19.719 2.72353 19.7836 2.82251 19.8145 2.93378C19.8454 3.04505 19.8411 3.16315 19.8023 3.27189C19.7634 3.38064 19.6918 3.4747 19.5974 3.54117C19.503 3.60764 19.3903 3.64327 19.2748 3.64318H19.2765Z"/>
</mask>
<path d="M19.2765 3.64318C19.1474 3.64316 19.0222 3.59847 18.9223 3.51671C18.5142 3.18423 18.0802 2.88482 17.6245 2.62131C17.5575 2.58633 17.4983 2.53812 17.4504 2.47961C17.4025 2.42111 17.367 2.3535 17.346 2.28089C17.3249 2.20827 17.3188 2.13215 17.328 2.05711C17.3372 1.98208 17.3616 1.90968 17.3995 1.8443C17.4375 1.77892 17.4883 1.7219 17.5489 1.6767C17.6094 1.63149 17.6786 1.59903 17.7521 1.58127C17.8255 1.56351 17.9019 1.56083 17.9764 1.57338C18.051 1.58593 18.1222 1.61345 18.1858 1.65429C18.6925 1.94783 19.1753 2.2809 19.6296 2.65041C19.719 2.72353 19.7836 2.82251 19.8145 2.93378C19.8454 3.04505 19.8411 3.16315 19.8023 3.27189C19.7634 3.38064 19.6918 3.4747 19.5974 3.54117C19.503 3.60764 19.3903 3.64327 19.2748 3.64318H19.2765Z" fill="#4F5756" stroke="#3B4443" stroke-width="0.2" mask="url(#path-3-inside-3)"/>
<mask id="path-4-inside-4" fill="white">
<path d="M21.4707 19.331C21.3807 19.3312 21.292 19.3097 21.2121 19.2683C21.1323 19.2269 21.0635 19.1668 21.0118 19.0932C20.0035 17.6633 18.6663 16.4965 17.113 15.6912C15.5596 14.8859 13.8356 14.4655 12.0859 14.4655C10.3362 14.4655 8.61208 14.8859 7.05874 15.6912C5.5054 16.4965 4.16827 17.6633 3.15992 19.0932C3.07458 19.2147 2.94447 19.2973 2.79823 19.3228C2.65198 19.3484 2.50157 19.3148 2.38009 19.2295C2.25861 19.1441 2.176 19.014 2.15045 18.8678C2.12489 18.7215 2.15848 18.5711 2.24382 18.4496C3.35558 16.8728 4.82991 15.5862 6.54269 14.6982C8.25547 13.8101 10.1565 13.3466 12.0859 13.3466C14.0152 13.3466 15.9163 13.8101 17.629 14.6982C19.3418 15.5862 20.8161 16.8728 21.9279 18.4496C21.9868 18.5334 22.0216 18.6317 22.0284 18.7339C22.0353 18.8361 22.014 18.9382 21.9668 19.0291C21.9197 19.12 21.8485 19.1962 21.761 19.2495C21.6735 19.3027 21.5731 19.3309 21.4707 19.331Z"/>
</mask>
<path d="M21.4707 19.331C21.3807 19.3312 21.292 19.3097 21.2121 19.2683C21.1323 19.2269 21.0635 19.1668 21.0118 19.0932C20.0035 17.6633 18.6663 16.4965 17.113 15.6912C15.5596 14.8859 13.8356 14.4655 12.0859 14.4655C10.3362 14.4655 8.61208 14.8859 7.05874 15.6912C5.5054 16.4965 4.16827 17.6633 3.15992 19.0932C3.07458 19.2147 2.94447 19.2973 2.79823 19.3228C2.65198 19.3484 2.50157 19.3148 2.38009 19.2295C2.25861 19.1441 2.176 19.014 2.15045 18.8678C2.12489 18.7215 2.15848 18.5711 2.24382 18.4496C3.35558 16.8728 4.82991 15.5862 6.54269 14.6982C8.25547 13.8101 10.1565 13.3466 12.0859 13.3466C14.0152 13.3466 15.9163 13.8101 17.629 14.6982C19.3418 15.5862 20.8161 16.8728 21.9279 18.4496C21.9868 18.5334 22.0216 18.6317 22.0284 18.7339C22.0353 18.8361 22.014 18.9382 21.9668 19.0291C21.9197 19.12 21.8485 19.1962 21.761 19.2495C21.6735 19.3027 21.5731 19.3309 21.4707 19.331Z" fill="#4F5756" stroke="#3B4443" stroke-width="0.2" mask="url(#path-4-inside-4)"/>
<mask id="path-5-inside-5" fill="white">
<path d="M12.0859 14.468C11.1951 14.4681 10.3243 14.204 9.58356 13.7092C8.84283 13.2144 8.26548 12.511 7.92451 11.6881C7.58354 10.8651 7.49427 9.95954 7.66799 9.08584C7.8417 8.21215 8.27061 7.40959 8.90046 6.77967C9.53031 6.14974 10.3328 5.72074 11.2065 5.54691C12.0802 5.37308 12.9857 5.46224 13.8087 5.80311C14.6317 6.14398 15.3352 6.72124 15.8301 7.4619C16.325 8.20257 16.5892 9.07336 16.5892 9.96415C16.588 11.1582 16.1132 12.303 15.2689 13.1473C14.4247 13.9917 13.2799 14.4666 12.0859 14.468ZM12.0859 6.58013C11.4164 6.58002 10.762 6.77844 10.2053 7.1503C9.64864 7.52216 9.21474 8.05076 8.9585 8.66923C8.70226 9.2877 8.63518 9.96828 8.76576 10.6249C8.89634 11.2815 9.2187 11.8846 9.69208 12.358C10.1655 12.8314 10.7686 13.1537 11.4252 13.2843C12.0818 13.4149 12.7623 13.3478 13.3808 13.0916C13.9993 12.8353 14.5279 12.4014 14.8998 11.8447C15.2716 11.2881 15.47 10.6336 15.4699 9.96415C15.4689 9.06697 15.112 8.20683 14.4776 7.57243C13.8432 6.93803 12.9831 6.58117 12.0859 6.58013Z"/>
</mask>
<path d="M12.0859 14.468C11.1951 14.4681 10.3243 14.204 9.58356 13.7092C8.84283 13.2144 8.26548 12.511 7.92451 11.6881C7.58354 10.8651 7.49427 9.95954 7.66799 9.08584C7.8417 8.21215 8.27061 7.40959 8.90046 6.77967C9.53031 6.14974 10.3328 5.72074 11.2065 5.54691C12.0802 5.37308 12.9857 5.46224 13.8087 5.80311C14.6317 6.14398 15.3352 6.72124 15.8301 7.4619C16.325 8.20257 16.5892 9.07336 16.5892 9.96415C16.588 11.1582 16.1132 12.303 15.2689 13.1473C14.4247 13.9917 13.2799 14.4666 12.0859 14.468ZM12.0859 6.58013C11.4164 6.58002 10.762 6.77844 10.2053 7.1503C9.64864 7.52216 9.21474 8.05076 8.9585 8.66923C8.70226 9.2877 8.63518 9.96828 8.76576 10.6249C8.89634 11.2815 9.2187 11.8846 9.69208 12.358C10.1655 12.8314 10.7686 13.1537 11.4252 13.2843C12.0818 13.4149 12.7623 13.3478 13.3808 13.0916C13.9993 12.8353 14.5279 12.4014 14.8998 11.8447C15.2716 11.2881 15.47 10.6336 15.4699 9.96415C15.4689 9.06697 15.112 8.20683 14.4776 7.57243C13.8432 6.93803 12.9831 6.58117 12.0859 6.58013Z" fill="#4F5756" stroke="#3B4443" stroke-width="0.2" mask="url(#path-5-inside-5)"/>
</svg>
