<svg width="24" height="30" viewBox="0 0 24 30" fill="none" xmlns="http://www.w3.org/2000/svg">
<path d="M13.852 27.7359L4.94901 28.9112C4.58263 28.9596 4.24527 28.7009 4.1969 28.3345L3.8215 25.4909C3.79243 25.2707 3.59039 25.1158 3.37023 25.1449C3.15007 25.1739 2.99515 25.376 3.02421 25.5962L3.39962 28.4398C3.50602 29.2458 4.24827 29.8149 5.05426 29.7085L13.9572 28.5332C14.1774 28.5041 14.3323 28.3021 14.3033 28.0819C14.2742 27.8618 14.0721 27.7068 13.852 27.7359Z" fill="#4F5756"/>
<path d="M19.0713 1.52174L18.4069 1.60946L18.2841 0.679293C18.2551 0.459137 18.053 0.304215 17.8329 0.333279C17.6127 0.362343 17.4578 0.56439 17.4869 0.784546L17.6097 1.71471L15.8556 1.94627L15.7328 1.0161C15.7038 0.795947 15.5017 0.641025 15.2816 0.670089C15.0614 0.699153 14.9065 0.9012 14.9356 1.12136L15.0583 2.05152L13.3043 2.28307L13.1815 1.35291C13.1525 1.13276 12.9504 0.977835 12.7303 1.0069C12.5101 1.03596 12.3552 1.23801 12.3843 1.45817L12.507 2.38833L10.753 2.61988L10.6302 1.68972C10.6012 1.46957 10.3991 1.31464 10.179 1.34371C9.95881 1.37277 9.80389 1.57482 9.83295 1.79498L9.95575 2.72514L8.20173 2.95669L8.07893 2.02653C8.04987 1.80638 7.84782 1.65145 7.62766 1.68052C7.40751 1.70958 7.25259 1.91163 7.28165 2.13179L7.40445 3.06195L5.65043 3.2935L5.52763 2.36334C5.49857 2.14319 5.29652 1.98826 5.07636 2.01733C4.85621 2.04639 4.70128 2.24844 4.73035 2.4686L4.85314 3.39876L3.09912 3.63031L2.97633 2.70015C2.94726 2.48 2.74522 2.32507 2.52506 2.35414C2.30491 2.3832 2.14998 2.58525 2.17905 2.80541L2.30184 3.73557L1.63744 3.82328C0.831442 3.92968 0.262318 4.67193 0.368721 5.47793L2.77902 23.7357C2.80808 23.9558 3.01013 24.1108 3.23028 24.0817C3.45044 24.0526 3.60536 23.8506 3.5763 23.6304L1.42914 7.36588L5.14978 6.8747C5.36994 6.84563 5.52486 6.64358 5.4958 6.42343C5.46673 6.20327 5.26469 6.04835 5.04453 6.07741L1.32388 6.56859L1.166 5.37267C1.11764 5.00629 1.37632 4.66893 1.74269 4.62056L2.4071 4.53285L2.52989 5.46301C2.55895 5.68317 2.761 5.83809 2.98116 5.80903C3.20131 5.77996 3.35624 5.57791 3.32717 5.35776L3.20438 4.4276L4.9584 4.19604L5.08119 5.1262C5.11026 5.34636 5.3123 5.50128 5.53246 5.47222C5.75262 5.44315 5.90754 5.2411 5.87847 5.02095L5.75568 4.09079L7.5097 3.85923L7.63249 4.78939C7.66156 5.00955 7.8636 5.16447 8.08376 5.13541C8.30392 5.10634 8.45884 4.90429 8.42977 4.68414L8.30698 3.75398L10.061 3.52242L10.1838 4.45258C10.2129 4.67274 10.4149 4.82766 10.6351 4.7986C10.8552 4.76953 11.0101 4.56748 10.9811 4.34733L10.8583 3.41717L12.6123 3.18561L12.7351 4.11577C12.7642 4.33593 12.9662 4.49085 13.1864 4.46179C13.4065 4.43272 13.5614 4.23067 13.5324 4.01052L13.4096 3.08036L15.1636 2.8488L15.2864 3.77896C15.3155 3.99912 15.5175 4.15404 15.7377 4.12498C15.9578 4.09591 16.1127 3.89387 16.0837 3.67371L15.9609 2.74355L17.7149 2.51199L17.8377 3.44215C17.8668 3.66231 18.0688 3.81723 18.289 3.78817C18.5091 3.7591 18.664 3.55706 18.635 3.3369L18.5122 2.40674L19.1766 2.31903C19.543 2.27066 19.8803 2.52934 19.9287 2.89572L20.0866 4.09164L6.90485 5.83182C6.6847 5.86089 6.52978 6.06293 6.55884 6.28309C6.5879 6.50325 6.78995 6.65817 7.01011 6.62911L20.1918 4.88892L22.96 25.8574C23.0084 26.2238 22.7497 26.5612 22.3833 26.6095L15.7127 27.4902C15.4926 27.5192 15.3376 27.7213 15.3667 27.9414C15.3958 28.1616 15.5978 28.3165 15.818 28.2874L22.4886 27.4068C23.2945 27.3004 23.8637 26.5582 23.7573 25.7522L20.726 2.79046C20.6196 1.98447 19.8773 1.41534 19.0713 1.52174Z" fill="#4F5756"/>
<path d="M7.22821 26.7175C8.254 26.5821 8.97837 25.6374 8.84295 24.6116C8.70753 23.5858 7.76282 22.8614 6.73703 22.9968C5.71125 23.1323 4.98688 24.077 5.1223 25.1028C5.25772 26.1285 6.20243 26.8529 7.22821 26.7175ZM6.84229 23.7941C7.42845 23.7167 7.96828 24.1307 8.04567 24.7168C8.12305 25.303 7.70912 25.8428 7.12296 25.9202C6.5368 25.9976 5.99696 25.5837 5.91958 24.9975C5.8422 24.4113 6.25612 23.8715 6.84229 23.7941Z" fill="#4F5756"/>
<path d="M5.35468 12.5259C6.38046 12.3905 7.10483 11.4458 6.96941 10.42C6.83399 9.3942 5.88928 8.66983 4.8635 8.80525C3.83772 8.94067 3.11335 9.88538 3.24876 10.9112C3.38418 11.9369 4.3289 12.6613 5.35468 12.5259ZM5.24943 11.7286C5.1023 11.748 4.95811 11.7364 4.82338 11.699L6.03295 10.1215C6.10406 10.2419 6.15271 10.3781 6.17213 10.5252C6.24951 11.1114 5.83559 11.6512 5.24943 11.7286ZM4.96875 9.60253C5.11588 9.58311 5.26007 9.59474 5.3948 9.63217L4.18523 11.2097C4.11412 11.0893 4.06547 10.953 4.04605 10.8059C3.96866 10.2198 4.38259 9.67992 4.96875 9.60253Z" fill="#4F5756"/>
<path d="M5.97333 17.2122C6.99911 17.0768 7.72348 16.132 7.58806 15.1063C7.45265 14.0805 6.50793 13.3561 5.48215 13.4915C4.45637 13.6269 3.732 14.5717 3.86742 15.5974C4.00284 16.6232 4.94755 17.3476 5.97333 17.2122ZM5.86808 16.4149C5.72095 16.4343 5.57676 16.4227 5.44203 16.3853L6.6516 14.8078C6.72271 14.9282 6.77136 15.0644 6.79078 15.2115C6.86816 15.7976 6.45424 16.3375 5.86808 16.4149ZM5.5874 14.2888C5.73453 14.2694 5.87872 14.281 6.01345 14.3184L4.80388 15.896C4.73277 15.7756 4.68412 15.6393 4.6647 15.4922C4.58732 14.906 5.00124 14.3662 5.5874 14.2888Z" fill="#4F5756"/>
<path d="M6.6095 22.0312C7.63528 21.8958 8.35965 20.9511 8.22423 19.9253C8.08882 18.8995 7.1441 18.1751 6.11832 18.3106C5.09254 18.446 4.36817 19.3907 4.50359 20.4165C4.639 21.4423 5.58372 22.1666 6.6095 22.0312ZM6.50425 21.2339C6.35712 21.2534 6.21293 21.2417 6.0782 21.2043L7.28777 19.6268C7.35888 19.7472 7.40753 19.8834 7.42695 20.0305C7.50433 20.6167 7.09041 21.1565 6.50425 21.2339ZM6.22357 19.1078C6.3707 19.0884 6.51489 19.1 6.64962 19.1375L5.44005 20.715C5.36894 20.5946 5.32029 20.4583 5.30087 20.3112C5.22349 19.7251 5.63741 19.1852 6.22357 19.1078Z" fill="#4F5756"/>
<path d="M18.8294 7.47538L8.57107 8.82964C8.35091 8.8587 8.19599 9.06075 8.22505 9.2809C8.25411 9.50106 8.45616 9.65598 8.67632 9.62692L18.9347 8.27266C19.1548 8.2436 19.3098 8.04155 19.2807 7.8214C19.2516 7.60124 19.0496 7.44632 18.8294 7.47538Z" fill="#4F5756"/>
<path d="M8.87575 11.5473L16.5828 10.5299C16.803 10.5008 16.9579 10.2988 16.9288 10.0786C16.8998 9.85846 16.6977 9.70354 16.4776 9.7326L8.7705 10.75C8.55034 10.7791 8.39542 10.9812 8.42448 11.2013C8.45355 11.4215 8.65559 11.5764 8.87575 11.5473Z" fill="#4F5756"/>
<path d="M19.4504 12.1793L17.0719 12.4933C16.8517 12.5223 16.6968 12.7244 16.7259 12.9445C16.7549 13.1647 16.957 13.3196 17.1771 13.2906L19.5557 12.9765C19.7759 12.9475 19.9308 12.7454 19.9017 12.5253C19.8726 12.3051 19.6706 12.1502 19.4504 12.1793Z" fill="#4F5756"/>
<path d="M15.1717 12.7442L9.19213 13.5336C8.97197 13.5626 8.81705 13.7647 8.84611 13.9848C8.87518 14.205 9.07723 14.3599 9.29738 14.3308L15.277 13.5414C15.4972 13.5124 15.6521 13.3103 15.623 13.0902C15.5939 12.87 15.3919 12.7151 15.1717 12.7442Z" fill="#4F5756"/>
<path d="M9.49675 16.2514L14.5462 15.5848C14.7664 15.5557 14.9213 15.3537 14.8922 15.1335C14.8632 14.9133 14.6611 14.7584 14.441 14.7875L9.3915 15.4541C9.17134 15.4832 9.01642 15.6852 9.04549 15.9054C9.07455 16.1255 9.2766 16.2804 9.49675 16.2514Z" fill="#4F5756"/>
<path d="M20.0715 16.8832L9.8131 18.2374C9.59294 18.2665 9.43802 18.4685 9.46709 18.6887C9.49615 18.9088 9.6982 19.0638 9.91835 19.0347L20.1767 17.6804C20.3969 17.6514 20.5518 17.4493 20.5227 17.2292C20.4937 17.009 20.2916 16.8541 20.0715 16.8832Z" fill="#4F5756"/>
<path d="M10.1178 20.9553L17.8249 19.9378C18.045 19.9088 18.2 19.7067 18.1709 19.4866C18.1418 19.2664 17.9398 19.1115 17.7196 19.1406L10.0126 20.158C9.79241 20.1871 9.63748 20.3891 9.66655 20.6093C9.69561 20.8294 9.89766 20.9844 10.1178 20.9553Z" fill="#4F5756"/>
<path d="M20.6924 21.5873L10.434 22.9415C10.2139 22.9706 10.059 23.1726 10.088 23.3928C10.1171 23.6129 10.3191 23.7679 10.5393 23.7388L20.7977 22.3845C21.0178 22.3555 21.1727 22.1534 21.1437 21.9333C21.1146 21.7131 20.9126 21.5582 20.6924 21.5873Z" fill="#4F5756"/>
<path d="M10.7388 25.6591L15.7882 24.9925C16.0084 24.9635 16.1633 24.7614 16.1342 24.5413C16.1052 24.3211 15.9031 24.1662 15.683 24.1953L10.6335 24.8619C10.4133 24.8909 10.2584 25.093 10.2875 25.3131C10.3166 25.5333 10.5186 25.6882 10.7388 25.6591Z" fill="#4F5756"/>
</svg>
