<svg width="30" height="31" viewBox="0 0 30 31" fill="none" xmlns="http://www.w3.org/2000/svg">
<path d="M24.2715 22.2722C24.2219 22.2854 24.1702 22.2884 24.1194 22.281C24.0687 22.2735 24.0199 22.2559 23.9762 22.229C20.1007 19.8431 16.1983 19.2911 11.6984 20.4909L8.4226 21.3643C7.19675 21.668 5.90066 21.4781 4.81339 20.8357C3.72611 20.1932 2.93459 19.1495 2.60924 17.9292C2.2839 16.7089 2.45074 15.4097 3.07385 14.3112C3.69697 13.2127 4.72651 12.4028 5.94084 12.0559L9.21521 11.1829C13.4972 10.0413 16.5771 7.51248 18.9077 3.22416C18.9314 3.1805 18.9634 3.14192 19.002 3.11063C19.0405 3.07934 19.0849 3.05596 19.1325 3.04181C19.1801 3.02767 19.23 3.02304 19.2794 3.02819C19.3288 3.03334 19.3767 3.04817 19.4204 3.07184C19.4641 3.0955 19.5026 3.12753 19.5339 3.1661C19.5652 3.20468 19.5886 3.24903 19.6028 3.29664C19.6169 3.34425 19.6215 3.39418 19.6164 3.44358C19.6112 3.49298 19.5964 3.54088 19.5727 3.58455C17.1376 8.06683 13.9074 10.7135 9.40975 11.9126L6.13538 12.7856C5.11704 13.083 4.25544 13.767 3.73473 14.6913C3.21402 15.6156 3.07552 16.7069 3.34882 17.732C3.62212 18.7571 4.28555 19.6346 5.19731 20.177C6.10906 20.7194 7.19681 20.8836 8.22806 20.6346L11.5024 19.7616C16.219 18.5041 20.3092 19.0833 24.3721 21.5857C24.435 21.6244 24.4852 21.6807 24.5164 21.7476C24.5477 21.8145 24.5586 21.8891 24.5479 21.9621C24.5372 22.0352 24.5053 22.1035 24.4561 22.1586C24.407 22.2137 24.3428 22.2532 24.2715 22.2722Z" fill="#4F5756"/>
<path d="M27.4881 15.1412C27.4753 15.1446 27.4629 15.1479 27.4511 15.1491C27.4021 15.1569 27.3519 15.155 27.3036 15.1434C27.2553 15.1318 27.2098 15.1108 27.1696 15.0816C27.1295 15.0523 27.0954 15.0155 27.0695 14.9731C27.0436 14.9307 27.0264 14.8836 27.0187 14.8345C26.9629 14.4797 26.8977 14.1194 26.8231 13.7535C26.8124 13.7049 26.8115 13.6546 26.8206 13.6056C26.8297 13.5567 26.8485 13.5101 26.876 13.4685C26.9034 13.427 26.9389 13.3914 26.9804 13.3638C27.0219 13.3363 27.0684 13.3173 27.1174 13.3081C27.1661 13.2982 27.2163 13.2981 27.2651 13.3077C27.314 13.3173 27.3604 13.3364 27.4018 13.364C27.4432 13.3916 27.4787 13.4271 27.5063 13.4685C27.5339 13.5099 27.5531 13.5563 27.5627 13.6051C27.6396 13.9814 27.7068 14.3521 27.7643 14.7174C27.7789 14.8097 27.7587 14.9041 27.7076 14.9824C27.6566 15.0607 27.5784 15.1172 27.4881 15.1412Z" fill="#4F5756"/>
<path d="M26.4364 23.4948C25.9038 23.6368 25.0282 23.5186 23.8825 22.1484C22.6943 20.7298 21.5056 18.363 20.5382 15.4834C20.2833 14.7238 20.0486 13.9403 19.8394 13.1556C19.6301 12.3708 19.4435 11.5711 19.2856 10.7855C18.6922 7.80627 18.5433 5.16099 18.8681 3.3394C19.1808 1.58083 19.8798 1.04276 20.4125 0.900747C22.2997 0.397568 24.4129 3.92783 25.7613 7.3994C25.7792 7.44562 25.7879 7.49493 25.7868 7.5445C25.7858 7.59408 25.7749 7.64295 25.7549 7.68834C25.735 7.73372 25.7062 7.77473 25.6704 7.80902C25.6346 7.8433 25.5924 7.8702 25.5461 7.88816C25.4528 7.92445 25.3489 7.92217 25.2572 7.88183C25.1656 7.84148 25.0937 7.76638 25.0574 7.67304C23.3886 3.37211 21.5545 1.3778 20.607 1.63041C20.1539 1.75122 19.8003 2.40507 19.6128 3.47104C19.3088 5.17847 19.4601 7.79028 20.0273 10.6374C20.1813 11.4072 20.3628 12.1891 20.5687 12.9611C20.7745 13.7331 21.0047 14.4982 21.255 15.2423C22.1805 17.9939 23.3496 20.3343 24.4629 21.6635C25.1579 22.4942 25.7899 22.8857 26.2415 22.7652C26.9632 22.5728 27.5815 20.8558 27.337 17.453C27.3323 17.4029 27.3376 17.3524 27.3526 17.3044C27.3677 17.2564 27.3921 17.2118 27.4246 17.1734C27.4571 17.135 27.497 17.1035 27.5418 17.0807C27.5867 17.0579 27.6356 17.0443 27.6858 17.0407C27.736 17.0371 27.7864 17.0435 27.834 17.0597C27.8817 17.0758 27.9256 17.1013 27.9633 17.1346C28.0009 17.168 28.0315 17.2085 28.0533 17.2539C28.0751 17.2993 28.0876 17.3485 28.09 17.3988C28.344 20.9249 27.7411 23.147 26.4364 23.4948Z" fill="#4F5756"/>
<path d="M26.6814 11.4721C26.5853 11.4977 26.4829 11.4844 26.3966 11.4349C26.3102 11.3855 26.2469 11.304 26.2203 11.2081C26.1213 10.8516 26.0201 10.4999 25.913 10.1568C25.8983 10.1095 25.893 10.0596 25.8975 10.0102C25.902 9.96079 25.9161 9.91274 25.9392 9.8688C25.9623 9.82486 25.9938 9.78589 26.0319 9.75412C26.07 9.72235 26.114 9.6984 26.1614 9.68364C26.2088 9.66888 26.2586 9.66359 26.308 9.66808C26.3575 9.67258 26.4055 9.68676 26.4494 9.70983C26.4934 9.73289 26.5324 9.76439 26.5641 9.80251C26.5959 9.84063 26.6198 9.88464 26.6346 9.93202C26.744 10.2823 26.8476 10.6415 26.9486 11.0058C26.9619 11.0535 26.9656 11.1035 26.9596 11.1527C26.9535 11.2019 26.9378 11.2494 26.9134 11.2926C26.889 11.3358 26.8563 11.3737 26.8172 11.4042C26.7782 11.4347 26.7335 11.4573 26.6857 11.4705L26.6814 11.4721Z" fill="#4F5756"/>
<path d="M12.6351 20.2712C12.5661 20.2893 12.4934 20.2882 12.425 20.2678C12.3566 20.2475 12.2951 20.2087 12.2472 20.1558C12.232 20.1381 12.2178 20.1196 12.2047 20.1003C10.313 17.5544 9.47317 14.3783 9.85924 11.23C9.8633 11.1797 9.87744 11.1306 9.90081 11.0858C9.92418 11.041 9.95631 11.0013 9.99529 10.9692C10.0343 10.937 10.0793 10.913 10.1278 10.8986C10.1762 10.8841 10.227 10.8796 10.2773 10.8851C10.3275 10.8907 10.3761 10.9063 10.4202 10.931C10.4643 10.9557 10.5029 10.989 10.5339 11.029C10.5649 11.0689 10.5875 11.1146 10.6005 11.1635C10.6135 11.2123 10.6165 11.2633 10.6094 11.3133C10.2449 14.2766 11.0359 17.2663 12.8181 19.6617C12.8508 19.6983 12.8759 19.7411 12.892 19.7876C12.908 19.8341 12.9147 19.8833 12.9115 19.9323C12.9084 19.9814 12.8955 20.0293 12.8737 20.0733C12.8518 20.1174 12.8215 20.1566 12.7843 20.1888C12.7419 20.2279 12.6908 20.2561 12.6351 20.2712Z" fill="#4F5756"/>
<path d="M15.7844 29.2617L11.6928 30.3525C11.4467 30.4179 11.1846 30.3829 10.9643 30.2553C10.7439 30.1277 10.5831 29.9179 10.5172 29.6719L8.21336 21.0308C8.18756 20.9341 8.20126 20.831 8.25144 20.7444C8.30161 20.6577 8.38416 20.5945 8.48092 20.5687L11.5028 19.763C11.5996 19.7372 11.7026 19.7509 11.7893 19.8011C11.876 19.8513 11.9391 19.9338 11.9649 20.0306C11.9907 20.1273 11.977 20.2304 11.9269 20.3171C11.8767 20.4037 11.7941 20.4669 11.6974 20.4927L9.04029 21.2011L11.2469 29.4773C11.261 29.5299 11.2954 29.5747 11.3425 29.602C11.3896 29.6293 11.4456 29.6368 11.4983 29.6229L15.5898 28.532C15.6497 28.5163 15.7041 28.4842 15.7468 28.4394C15.7895 28.3945 15.8189 28.3387 15.8317 28.2781C15.8445 28.2175 15.8402 28.1546 15.8193 28.0963C15.7983 28.038 15.7616 27.9867 15.7132 27.9481L15.1436 27.4869C14.5212 26.9854 14.046 26.3249 13.7684 25.5754C13.7186 25.4429 13.6714 25.3027 13.6334 25.16L12.2522 19.9794C12.2264 19.8826 12.2401 19.7796 12.2902 19.6929C12.3404 19.6063 12.423 19.5431 12.5197 19.5173C12.6165 19.4915 12.7195 19.5052 12.8062 19.5554C12.8929 19.6056 12.956 19.6881 12.9818 19.7849L14.3631 24.9655C14.3948 25.0823 14.4324 25.1975 14.4758 25.3106C14.7058 25.9336 15.1005 26.4825 15.6179 26.8989L16.1881 27.3608C16.3445 27.4872 16.4629 27.6544 16.5301 27.8439C16.5974 28.0334 16.6108 28.2378 16.5689 28.4345C16.5271 28.6312 16.4316 28.8125 16.2931 28.9582C16.1545 29.1039 15.9783 29.2085 15.784 29.2602L15.7844 29.2617Z" fill="#4F5756"/>
<path d="M13.2352 22.2053L12.0838 22.5123C11.9871 22.5381 11.884 22.5244 11.7974 22.4742C11.7107 22.424 11.6475 22.3415 11.6217 22.2447C11.5959 22.148 11.6096 22.0449 11.6598 21.9583C11.71 21.8716 11.7925 21.8084 11.8893 21.7826L13.0407 21.4756C13.1374 21.4498 13.2405 21.4635 13.3272 21.5137C13.4138 21.5639 13.477 21.6464 13.5028 21.7432C13.5286 21.8399 13.5149 21.943 13.4647 22.0297C13.4145 22.1163 13.332 22.1795 13.2352 22.2053Z" fill="#4F5756"/>
<path d="M13.7167 24.0113L12.5653 24.3182C12.4686 24.344 12.3655 24.3303 12.2789 24.2802C12.1922 24.23 12.129 24.1474 12.1032 24.0507C12.0774 23.9539 12.0911 23.8509 12.1413 23.7642C12.1915 23.6776 12.274 23.6144 12.3708 23.5886L13.5222 23.2816C13.619 23.2558 13.722 23.2695 13.8087 23.3197C13.8953 23.3699 13.9585 23.4524 13.9843 23.5492C14.0101 23.6459 13.9964 23.749 13.9462 23.8356C13.896 23.9223 13.8135 23.9855 13.7167 24.0113Z" fill="#4F5756"/>
<path d="M14.2207 25.8107L13.0467 26.1238C12.9499 26.1496 12.8469 26.1359 12.7602 26.0857C12.6736 26.0355 12.6104 25.953 12.5846 25.8562C12.5588 25.7594 12.5725 25.6564 12.6227 25.5697C12.6728 25.4831 12.7554 25.4199 12.8521 25.3941L14.0262 25.0811C14.1229 25.0553 14.226 25.069 14.3126 25.1192C14.3993 25.1693 14.4625 25.2519 14.4883 25.3486C14.5141 25.4454 14.5004 25.5484 14.4502 25.6351C14.4 25.7218 14.3175 25.7849 14.2207 25.8107Z" fill="#4F5756"/>
<path d="M21.7558 15.5246L20.9933 15.7279C20.8965 15.7537 20.7935 15.74 20.7068 15.6898C20.6201 15.6396 20.557 15.5571 20.5312 15.4603C20.5054 15.3636 20.5191 15.2605 20.5692 15.1739C20.6194 15.0872 20.702 15.024 20.7987 14.9982L21.5612 14.7949C22.0813 14.6563 22.525 14.3167 22.7947 13.8509C23.0644 13.3851 23.138 12.8312 22.9994 12.3111C22.8607 11.791 22.5211 11.3473 22.0553 11.0776C21.5895 10.8079 21.0356 10.7343 20.5156 10.873L19.7531 11.0763C19.6563 11.1021 19.5533 11.0884 19.4666 11.0382C19.3799 10.988 19.3168 10.9055 19.291 10.8087C19.2652 10.712 19.2789 10.6089 19.329 10.5222C19.3792 10.4356 19.4618 10.3724 19.5585 10.3466L20.321 10.1433C21.0346 9.95305 21.7946 10.0541 22.4337 10.4241C23.0728 10.7942 23.5388 11.403 23.729 12.1166C23.9193 12.8302 23.8183 13.5901 23.4482 14.2293C23.0782 14.8684 22.4694 15.3343 21.7558 15.5246Z" fill="#4F5756"/>
</svg>
