<svg width="26" height="26" viewBox="0 0 26 26" fill="none" xmlns="http://www.w3.org/2000/svg">
<path d="M7.80074 26C9.72205 25.9992 11.5748 25.2859 13.0004 23.9983C15.3971 26.1514 18.8729 26.6073 21.7446 25.1455C24.6163 23.6837 26.2911 20.6059 25.9581 17.4024C25.6251 14.1986 23.3532 11.5306 20.2422 10.6899C21.5442 7.43595 20.5136 3.71367 17.723 1.59148C14.9325 -0.530493 11.0681 -0.530493 8.27763 1.59148C5.48717 3.71367 4.45638 7.43595 5.75862 10.6899C1.98539 11.7106 -0.447508 15.3667 0.0689469 19.2391C0.585401 23.1115 3.89189 26.0025 7.80074 26ZM11.2672 18.2048C11.2661 17.2776 11.4523 16.3599 11.8147 15.5064C12.5995 15.6396 13.4011 15.6396 14.1859 15.5064C15.2243 17.9543 14.763 20.7808 13.0004 22.7723C11.8841 21.5125 11.2676 19.8878 11.2672 18.2048ZM13.7682 14.697C13.2581 14.757 12.7427 14.757 12.2326 14.697C12.4545 14.3204 12.7116 13.9655 13.0004 13.6371C13.289 13.9655 13.5461 14.3204 13.7682 14.697ZM13.6123 13.0258C15.0707 11.7169 17.0205 11.0954 18.9679 11.3192C18.0234 12.9188 16.4772 14.0736 14.6746 14.5259C14.3809 13.9852 14.0242 13.4811 13.6123 13.0241V13.0258ZM11.326 14.5293C9.52296 14.0763 7.97656 12.9201 7.03294 11.3192C8.97964 11.0946 10.9295 11.7146 12.3885 13.0222C11.9762 13.4805 11.6197 13.9858 11.326 14.5276V14.5293ZM25.133 18.2048C25.1376 20.9312 23.5394 23.4061 21.0517 24.5249C18.5638 25.6437 15.6506 25.1975 13.6123 23.3855C15.5882 21.1917 16.1429 18.0653 15.0421 15.3263C17.1107 14.7623 18.8572 13.3749 19.8738 11.4883C22.9597 12.2582 25.1268 15.026 25.133 18.2048ZM13.0004 0.882253C15.3248 0.882253 17.4945 2.04654 18.7787 3.98285C20.0628 5.91917 20.2909 8.36996 19.3855 10.5097C17.0781 10.132 14.7247 10.833 13.0004 12.4113C11.2761 10.833 8.92272 10.132 6.61508 10.5097C5.70996 8.36996 5.93782 5.91917 7.22208 3.98285C8.50634 2.04654 10.676 0.882253 13.0004 0.882253ZM6.12634 11.4883C7.14317 13.3749 8.88972 14.7623 10.9583 15.3263C9.85725 18.0653 10.412 21.1917 12.3881 23.3855C10.2358 25.2929 7.12772 25.672 4.57972 24.3377C2.03152 23.0036 0.573976 20.2342 0.917574 17.3797C1.26117 14.5253 3.33439 12.1804 6.12634 11.4883Z" fill="#4F5756"/>
</svg>
