<svg width="29" height="29" viewBox="0 0 29 29" fill="none" xmlns="http://www.w3.org/2000/svg">
<path d="M23.5544 23.3436H1.97771C1.45337 23.3431 0.950663 23.1403 0.579894 22.7798C0.209126 22.4193 0.000575256 21.9305 0 21.4207V8.48415C0.00115114 7.97488 0.210025 7.48686 0.580794 7.12715C0.951562 6.76744 1.45394 6.56543 1.97771 6.56543H13.3267C13.442 6.56543 13.5526 6.60996 13.6341 6.68921C13.7156 6.76847 13.7614 6.87597 13.7614 6.98805C13.7614 7.10014 13.7156 7.20764 13.6341 7.2869C13.5526 7.36615 13.442 7.41068 13.3267 7.41068H1.97771C1.68443 7.41045 1.40303 7.52335 1.19524 7.72459C0.987456 7.92583 0.870245 8.19899 0.869325 8.48415V21.4207C0.86967 21.7064 0.986557 21.9803 1.19435 22.1824C1.40213 22.3844 1.68386 22.4981 1.97771 22.4984H23.5544C23.8482 22.4981 24.1299 22.3844 24.3377 22.1824C24.5455 21.9803 24.6624 21.7064 24.6627 21.4207V10.7959C24.6627 10.6838 24.7085 10.5763 24.7901 10.4971C24.8716 10.4178 24.9821 10.3733 25.0974 10.3733C25.2127 10.3733 25.3232 10.4178 25.4048 10.4971C25.4863 10.5763 25.5321 10.6838 25.5321 10.7959V21.4207C25.5315 21.9305 25.3229 22.4193 24.9522 22.7798C24.5814 23.1403 24.0787 23.3431 23.5544 23.3436Z" fill="#4F5756"/>
<path d="M17.7942 28.45H7.7379C7.62041 28.45 7.50773 28.4093 7.42465 28.3367C7.34157 28.2641 7.29489 28.1657 7.29489 28.0631V27.5372C7.2956 27.0055 7.53775 26.4958 7.96821 26.1199C8.39868 25.744 8.9823 25.5326 9.59101 25.5321H15.942C16.5506 25.5327 17.134 25.7442 17.5643 26.1201C17.9946 26.496 18.2366 27.0056 18.2372 27.5372V28.0631C18.2372 28.1657 18.1905 28.2641 18.1075 28.3367C18.0244 28.4093 17.9117 28.45 17.7942 28.45ZM8.18091 27.6761H17.3512V27.5372C17.3508 27.2108 17.2023 26.8979 16.9381 26.6671C16.6739 26.4362 16.3157 26.3064 15.942 26.306H9.59101C9.21729 26.3064 8.85901 26.4362 8.59475 26.667C8.33049 26.8979 8.18182 27.2108 8.18135 27.5372L8.18091 27.6761Z" fill="#4F5756"/>
<path d="M9.79498 26.2615C9.75212 26.2618 9.7097 26.2492 9.67046 26.2245C9.63297 26.2012 9.59905 26.1675 9.57066 26.1254C9.54227 26.0832 9.51995 26.0335 9.50497 25.9791C9.49 25.9246 9.48266 25.8664 9.48339 25.8079C9.48411 25.7494 9.49288 25.6916 9.5092 25.638L10.3454 22.8817C10.3617 22.828 10.3853 22.7795 10.4148 22.7389C10.4442 22.6982 10.479 22.6663 10.5171 22.6449C10.5551 22.6235 10.5958 22.6131 10.6367 22.6142C10.6776 22.6152 10.7179 22.6279 10.7554 22.6513C10.7929 22.6747 10.8268 22.7084 10.8552 22.7506C10.8835 22.7928 10.9058 22.8425 10.9208 22.897C10.9357 22.9515 10.943 23.0097 10.9423 23.0683C10.9415 23.1268 10.9327 23.1846 10.9163 23.2383L10.0808 25.9936C10.0566 26.0733 10.0166 26.1411 9.96583 26.1887C9.91505 26.2363 9.85567 26.2616 9.79498 26.2615Z" fill="#4F5756"/>
<path d="M15.5825 26.2615C15.4916 26.2616 15.4026 26.2364 15.3265 26.1889C15.2504 26.1414 15.1905 26.0737 15.1541 25.9942L13.8992 23.2381C13.8747 23.1845 13.8615 23.1267 13.8603 23.0682C13.8592 23.0096 13.8701 22.9515 13.8925 22.897C13.915 22.8425 13.9484 22.7927 13.9909 22.7506C14.0335 22.7084 14.0843 22.6747 14.1405 22.6513C14.1967 22.6279 14.2571 22.6152 14.3184 22.6142C14.3797 22.6131 14.4407 22.6235 14.4977 22.6449C14.5548 22.6663 14.6069 22.6982 14.6511 22.7388C14.6952 22.7794 14.7306 22.828 14.7551 22.8816L16.01 25.6372C16.0344 25.6909 16.0476 25.7486 16.0486 25.8071C16.0497 25.8656 16.0387 25.9238 16.0163 25.9782C15.9938 26.0327 15.9604 26.0824 15.9178 26.1245C15.8753 26.1666 15.8244 26.2003 15.7682 26.2236C15.7097 26.2484 15.6465 26.2613 15.5825 26.2615Z" fill="#4F5756"/>
<path d="M14.9469 14.225C14.8584 14.2249 14.7721 14.1968 14.6999 14.1447C14.6276 14.0925 14.5729 14.0188 14.5432 13.9336C14.5135 13.8484 14.5103 13.756 14.534 13.6688C14.5577 13.5817 14.6072 13.5042 14.6757 13.447C15.3476 12.8283 15.8241 12.0191 16.0444 11.1226C14.0085 9.96605 12.8025 8.12274 12.8025 6.13997C12.8025 2.75422 16.3112 0 20.6241 0C24.9369 0 28.45 2.75422 28.45 6.13997C28.45 9.52573 24.9395 12.2799 20.6241 12.2799C20.2612 12.2799 19.8986 12.2605 19.5377 12.2221C18.1896 13.2177 16.6446 13.8997 15.0112 14.2202C14.9899 14.2235 14.9684 14.2251 14.9469 14.225ZM20.6241 0.877139C16.7845 0.877139 13.6606 3.23796 13.6606 6.13997C13.6606 7.87232 14.798 9.49678 16.7038 10.4853C16.7774 10.5235 16.8386 10.5826 16.8802 10.6555C16.9217 10.7284 16.9418 10.812 16.9381 10.8963C16.8502 11.652 16.5861 12.3752 16.1679 13.0049C17.241 12.6386 18.2512 12.1023 19.1614 11.4155C19.2502 11.3487 19.3604 11.3186 19.4699 11.3313C19.8529 11.3787 20.2383 11.4026 20.6241 11.4028C24.4662 11.4028 27.5919 9.04199 27.5919 6.13997C27.5919 3.23796 24.4662 0.877139 20.6241 0.877139Z" fill="#4F5756"/>
<path d="M21.0374 4.99707H16.0936C15.9753 4.99707 15.8618 4.95864 15.7782 4.89024C15.6945 4.82183 15.6475 4.72906 15.6475 4.63232C15.6475 4.53559 15.6945 4.44281 15.7782 4.37441C15.8618 4.30601 15.9753 4.26758 16.0936 4.26758H21.0374C21.1557 4.26758 21.2691 4.30601 21.3528 4.37441C21.4364 4.44281 21.4834 4.53559 21.4834 4.63232C21.4834 4.72906 21.4364 4.82183 21.3528 4.89024C21.2691 4.95864 21.1557 4.99707 21.0374 4.99707Z" fill="#4F5756"/>
<path d="M25.4234 6.41949H16.0844C15.9686 6.41949 15.8574 6.38106 15.7755 6.31266C15.6936 6.24426 15.6475 6.15148 15.6475 6.05475C15.6475 5.95801 15.6936 5.86524 15.7755 5.79683C15.8574 5.72843 15.9686 5.69 16.0844 5.69H25.4234C25.5393 5.69 25.6504 5.72843 25.7324 5.79683C25.8143 5.86524 25.8603 5.95801 25.8603 6.05475C25.8603 6.15148 25.8143 6.24426 25.7324 6.31266C25.6504 6.38106 25.5393 6.41949 25.4234 6.41949Z" fill="#4F5756"/>
<path d="M25.4234 7.84198H16.0844C15.9686 7.84198 15.8574 7.80355 15.7755 7.73514C15.6936 7.66674 15.6475 7.57397 15.6475 7.47723C15.6475 7.3805 15.6936 7.28772 15.7755 7.21932C15.8574 7.15092 15.9686 7.11249 16.0844 7.11249H25.4234C25.5393 7.11249 25.6504 7.15092 25.7324 7.21932C25.8143 7.28772 25.8603 7.3805 25.8603 7.47723C25.8603 7.57397 25.8143 7.66674 25.7324 7.73514C25.6504 7.80355 25.5393 7.84198 25.4234 7.84198Z" fill="#4F5756"/>
<path d="M25.0974 19.6962H0.434662C0.319383 19.6962 0.208825 19.6578 0.12731 19.5894C0.0457947 19.521 0 19.4282 0 19.3314C0 19.2347 0.0457947 19.1419 0.12731 19.0735C0.208825 19.0051 0.319383 18.9667 0.434662 18.9667H25.0974C25.2127 18.9667 25.3232 19.0051 25.4048 19.0735C25.4863 19.1419 25.5321 19.2347 25.5321 19.3314C25.5321 19.4282 25.4863 19.521 25.4048 19.5894C25.3232 19.6578 25.2127 19.6962 25.0974 19.6962Z" fill="#4F5756"/>
<path d="M21.8844 21.1551C21.7896 21.1558 21.6954 21.1471 21.6073 21.1295C21.52 21.1104 21.4407 21.0831 21.374 21.0489C21.3048 21.0155 21.2498 20.9754 21.2121 20.931C21.1745 20.8866 21.1552 20.8389 21.1552 20.7907C21.1552 20.7425 21.1745 20.6947 21.2121 20.6504C21.2498 20.606 21.3048 20.5659 21.374 20.5325C21.4388 20.4972 21.5185 20.4697 21.6073 20.4519C21.7411 20.4253 21.8874 20.4188 22.0285 20.4331C22.1695 20.4474 22.2993 20.4819 22.4021 20.5325C22.4706 20.5664 22.5246 20.6069 22.561 20.6516C22.5973 20.6963 22.6152 20.7442 22.6135 20.7925C22.6159 20.816 22.611 20.8394 22.599 20.8621C22.5902 20.8857 22.578 20.909 22.5625 20.9317C22.5426 20.9537 22.5181 20.9745 22.4896 20.994C22.4669 21.0147 22.4373 21.0332 22.4021 21.0489C22.3346 21.0833 22.254 21.1105 22.165 21.1287C22.076 21.147 21.9805 21.156 21.8844 21.1551Z" fill="#4F5756"/>
<path d="M18.967 21.1552C18.7724 21.1541 18.5864 21.1146 18.4492 21.0453C18.3134 20.9766 18.2372 20.8838 18.2372 20.787C18.2372 20.6902 18.3134 20.5974 18.4492 20.5288C18.588 20.4626 18.772 20.4257 18.9633 20.4257C19.1546 20.4257 19.3386 20.4626 19.4774 20.5288C19.5477 20.5613 19.6025 20.6014 19.6378 20.646C19.676 20.6912 19.6959 20.7397 19.6962 20.7888C19.6958 20.8368 19.6762 20.8842 19.6386 20.9282C19.601 20.9723 19.5462 21.0121 19.4774 21.0453C19.4461 21.0639 19.4092 21.08 19.368 21.0929C19.3316 21.1039 19.2878 21.1149 19.2441 21.1259C19.2003 21.1369 19.1493 21.1405 19.1055 21.1479C19.0598 21.1521 19.0135 21.1546 18.967 21.1552Z" fill="#4F5756"/>
<path d="M15.6842 21.1552C15.6362 21.1556 15.5885 21.1464 15.5441 21.1281C15.4996 21.1097 15.4592 21.0825 15.4253 21.0482C15.3574 20.9791 15.3193 20.8856 15.3193 20.7881C15.3193 20.6907 15.3574 20.5972 15.4253 20.5281C15.4958 20.4622 15.5882 20.4257 15.6842 20.4257C15.7801 20.4257 15.8725 20.4622 15.943 20.5281C16.0102 20.5984 16.048 20.6922 16.0488 20.79C16.0488 20.8382 16.0393 20.886 16.0209 20.9306C16.0026 20.9751 15.9757 21.0155 15.9418 21.0495C15.9079 21.0835 15.8676 21.1103 15.8234 21.1284C15.7792 21.1466 15.7319 21.1556 15.6842 21.1552Z" fill="#4F5756"/>
</svg>
