<svg width="31" height="31" viewBox="0 0 31 31" fill="none" xmlns="http://www.w3.org/2000/svg">
<path d="M17.0346 30.36H13.3254C13.1251 30.3594 12.9311 30.2898 12.7762 30.1628C12.6213 30.0358 12.5148 29.8593 12.4749 29.663L12.0737 27.6606C10.8323 27.3548 9.6442 26.8631 8.54981 26.202L6.85269 27.334C6.68585 27.4451 6.48567 27.4951 6.28618 27.4753C6.08669 27.4555 5.9002 27.3673 5.75842 27.2255L3.13445 24.6024C2.99257 24.4606 2.90426 24.2739 2.88457 24.0742C2.86488 23.8745 2.91502 23.6742 3.02646 23.5073L4.15802 21.8098C3.4971 20.7147 3.00412 19.5267 2.69553 18.2854L0.696979 17.8851C0.500679 17.8452 0.324157 17.7387 0.197187 17.5838C0.0702177 17.4289 0.000572637 17.2349 0 17.0346V13.3254C0.000572637 13.1251 0.0702177 12.9311 0.197187 12.7762C0.324157 12.6213 0.500679 12.5148 0.696979 12.4749L2.6951 12.0746C3.00269 10.8318 3.49634 9.64253 4.15932 8.54721L3.02689 6.85269C2.91534 6.68578 2.86513 6.48536 2.88482 6.28558C2.90452 6.0858 2.99289 5.89903 3.13489 5.75712L5.75799 3.13402C5.89974 2.99211 6.08628 2.90371 6.28587 2.88386C6.48547 2.86401 6.68577 2.91394 6.85269 3.02516L8.55415 4.15628C9.64836 3.49579 10.8355 3.00325 12.0759 2.6951L12.4762 0.696979C12.5161 0.500897 12.6223 0.324541 12.777 0.197597C12.9317 0.0706524 13.1253 0.000871316 13.3254 0H17.0346C17.2349 0.000572637 17.4289 0.0702177 17.5838 0.197187C17.7387 0.324157 17.8452 0.500679 17.8851 0.696979L18.2854 2.6951C19.5258 3.00325 20.7129 3.49579 21.8072 4.15628L23.5073 3.02516C23.6742 2.91422 23.8744 2.86449 24.0738 2.88442C24.2732 2.90434 24.4595 2.99269 24.6011 3.13445L27.2238 5.75712C27.3658 5.89903 27.4542 6.0858 27.4739 6.28558C27.4936 6.48536 27.4434 6.68578 27.3318 6.85269L26.2007 8.54721C26.8637 9.64253 27.3573 10.8318 27.6649 12.0746L29.663 12.4749C29.8593 12.5148 30.0358 12.6213 30.1628 12.7762C30.2898 12.9311 30.3594 13.1251 30.36 13.3254V17.0346C30.3594 17.2349 30.2898 17.4289 30.1628 17.5838C30.0358 17.7387 29.8593 17.8452 29.663 17.8851L27.6645 18.2854C27.3562 19.5257 26.8638 20.7128 26.2037 21.8072L27.3348 23.5073C27.4454 23.6745 27.4948 23.8746 27.4748 24.074C27.4548 24.2733 27.3666 24.4597 27.2251 24.6016L24.602 27.2212C24.4602 27.3623 24.274 27.4502 24.0749 27.47C23.8758 27.4899 23.6759 27.4404 23.509 27.3301L21.8102 26.2024C20.7159 26.8637 19.5278 27.3556 18.2863 27.6614L17.8851 29.6639C17.845 29.86 17.7385 30.0364 17.5836 30.1632C17.4287 30.2899 17.2348 30.3595 17.0346 30.36ZM12.8752 27.2451L13.3254 29.4926H17.0346L17.4882 27.2295C17.503 27.1448 17.5424 27.0663 17.6016 27.004C17.6608 26.9416 17.7371 26.8982 17.8209 26.879C19.157 26.5813 20.4313 26.0537 21.5868 25.3198C21.6577 25.275 21.74 25.2517 21.8238 25.2527C21.9076 25.2537 21.9894 25.279 22.0591 25.3254L23.9892 26.6084L26.6123 23.9887L25.3506 22.0904C25.2935 22.0201 25.2598 21.9337 25.2543 21.8433C25.2488 21.7529 25.2717 21.6631 25.3198 21.5864C26.0539 20.4299 26.583 19.1555 26.8838 17.8192C26.9023 17.7375 26.944 17.6628 27.0039 17.6044C27.0639 17.5459 27.1395 17.506 27.2216 17.4895L29.4926 17.0346V13.3254L27.2216 12.8705C27.1395 12.854 27.0639 12.8141 27.0039 12.7556C26.944 12.6972 26.9023 12.6226 26.8838 12.5408C26.5853 11.2043 26.057 9.92977 25.3224 8.77404C25.2782 8.70442 25.2547 8.62363 25.2547 8.54114C25.2548 8.45379 25.2803 8.36835 25.328 8.29522L26.614 6.3704L23.9887 3.74729L22.0904 5.0094C22.0201 5.0665 21.9337 5.10017 21.8433 5.10569C21.7529 5.11122 21.6631 5.08831 21.5864 5.04019C20.43 4.30594 19.1556 3.77684 17.8192 3.47622C17.7375 3.45775 17.6628 3.41601 17.6044 3.35606C17.5459 3.2961 17.506 3.22049 17.4895 3.13836L17.0346 0.867429H13.3254L12.8705 3.13836C12.854 3.22049 12.8141 3.2961 12.7556 3.35606C12.6972 3.41601 12.6226 3.45775 12.5408 3.47622C11.2044 3.77684 9.92998 4.30594 8.77361 5.04019C8.70797 5.08178 8.63236 5.10497 8.55469 5.10734C8.47701 5.1097 8.40014 5.09116 8.33209 5.05364C8.30472 5.03878 8.27911 5.02089 8.25575 5.00029L6.37126 3.74729L3.74816 6.3704L5.03412 8.29522C5.08189 8.36657 5.1074 8.4505 5.10742 8.53636C5.10748 8.62035 5.08404 8.70268 5.03976 8.77404C4.30514 9.92977 3.77683 11.2043 3.47839 12.5408C3.45992 12.6226 3.41818 12.6972 3.35823 12.7556C3.29827 12.8141 3.22266 12.854 3.14053 12.8705L0.867429 13.3254V17.0346L3.13836 17.4895C3.22049 17.506 3.2961 17.5459 3.35606 17.6044C3.41601 17.6628 3.45775 17.7375 3.47622 17.8192C3.77704 19.1555 4.30612 20.4299 5.04019 21.5864C5.08518 21.6573 5.10859 21.7398 5.10759 21.8238C5.10659 21.9078 5.08122 21.9897 5.03456 22.0596L3.74773 23.9892L6.37083 26.6123L8.30042 25.3254C8.37028 25.2788 8.45218 25.2534 8.53618 25.2524C8.62018 25.2514 8.70266 25.2748 8.77361 25.3198C9.92895 26.0541 11.2033 26.5817 12.5395 26.879C12.6263 26.8983 12.7049 26.9438 12.765 27.0092C12.825 27.0747 12.8635 27.157 12.8752 27.2451Z" fill="#4F5756"/>
<path d="M14.5386 24.5179H14.5117C13.9938 24.4854 13.4799 24.4059 12.9764 24.2802C12.9207 24.2668 12.8683 24.2425 12.8221 24.2088C12.7759 24.175 12.7369 24.1325 12.7072 24.0836C12.6775 24.0347 12.6578 23.9804 12.6492 23.9238C12.6406 23.8673 12.6432 23.8095 12.657 23.754C12.6708 23.6985 12.6954 23.6462 12.7295 23.6003C12.7636 23.5543 12.8064 23.5156 12.8555 23.4862C12.9046 23.4569 12.9591 23.4375 13.0157 23.4293C13.0723 23.4211 13.13 23.4242 13.1854 23.4384C13.6377 23.5512 14.0994 23.6227 14.5646 23.6522C14.6796 23.6556 14.7886 23.7046 14.8675 23.7884C14.9464 23.8722 14.9888 23.9839 14.9853 24.0989C14.9819 24.2139 14.9329 24.3229 14.8491 24.4018C14.7653 24.4807 14.6536 24.5231 14.5386 24.5196V24.5179Z" fill="#4F5756"/>
<path d="M9.19478 22.2409C9.08735 22.2407 8.9838 22.2007 8.90419 22.1286C7.51259 20.8712 6.53067 19.2249 6.08568 17.403C5.64069 15.5811 5.75314 13.6675 6.40845 11.9102C7.06376 10.1529 8.23173 8.63295 9.76102 7.54725C11.2903 6.46155 13.1104 5.86016 14.9855 5.82101C16.8606 5.78186 18.7042 6.30676 20.2775 7.32768C21.8507 8.34861 23.0811 9.8185 23.8092 11.5469C24.5373 13.2753 24.7295 15.1825 24.361 17.0214C23.9924 18.8603 23.08 20.5462 21.7421 21.8605C21.7021 21.9031 21.6539 21.9372 21.6004 21.9607C21.5469 21.9842 21.4892 21.9966 21.4308 21.9972C21.3724 21.9979 21.3144 21.9867 21.2604 21.9644C21.2064 21.9421 21.1575 21.9091 21.1165 21.8674C21.0756 21.8257 21.0435 21.7762 21.0222 21.7218C21.0009 21.6674 20.9908 21.6092 20.9925 21.5508C20.9942 21.4924 21.0077 21.4349 21.0322 21.3819C21.0567 21.3288 21.0916 21.2813 21.1349 21.242C22.3496 20.0493 23.178 18.5193 23.5128 16.8502C23.8476 15.1811 23.6733 13.45 23.0126 11.8811C22.3519 10.3122 21.2352 8.97794 19.8073 8.05121C18.3793 7.12448 16.7059 6.64801 15.004 6.68356C13.302 6.71911 11.65 7.26504 10.2619 8.25059C8.87391 9.23614 7.8139 10.6159 7.21929 12.211C6.62468 13.8061 6.52288 15.543 6.92708 17.1966C7.33128 18.8503 8.22285 20.3444 9.48624 21.4854C9.55132 21.5442 9.59704 21.6213 9.61738 21.7066C9.63771 21.792 9.63169 21.8814 9.60013 21.9633C9.56856 22.0451 9.51292 22.1154 9.44055 22.165C9.36819 22.2146 9.28249 22.241 9.19478 22.2409Z" fill="#4F5756"/>
<path d="M17.6738 24.1887C17.5689 24.189 17.4674 24.1513 17.3881 24.0826C17.3088 24.0138 17.2572 23.9186 17.2427 23.8147C17.2283 23.7108 17.252 23.6051 17.3095 23.5173C17.367 23.4295 17.4544 23.3656 17.5554 23.3373C17.9418 23.2279 18.3188 23.0881 18.6831 22.9192C18.7866 22.875 18.9033 22.8729 19.0084 22.9131C19.1135 22.9534 19.1988 23.033 19.2463 23.135C19.2939 23.2371 19.2999 23.3536 19.2631 23.4599C19.2263 23.5663 19.1496 23.6542 19.0491 23.7051C18.6429 23.8938 18.2223 24.0498 17.7914 24.1717C17.7531 24.1827 17.7136 24.1884 17.6738 24.1887Z" fill="#4F5756"/>
<path d="M13.7609 18.3175C13.6649 18.3176 13.5717 18.2858 13.4957 18.2272C13.4197 18.1685 13.3653 18.0864 13.3411 17.9935L12.2624 13.8732L11.4982 15.8167C11.4663 15.8978 11.4107 15.9674 11.3387 16.0165C11.2667 16.0655 11.1816 16.0917 11.0944 16.0917H8.63309C8.51806 16.0917 8.40774 16.046 8.3264 15.9647C8.24507 15.8833 8.19937 15.773 8.19937 15.658C8.19937 15.543 8.24507 15.4326 8.3264 15.3513C8.40774 15.27 8.51806 15.2243 8.63309 15.2243H10.7995L11.9423 12.3184C11.9752 12.2328 12.0346 12.1599 12.1119 12.1106C12.1891 12.0613 12.2802 12.038 12.3717 12.0443C12.463 12.0497 12.5503 12.0839 12.621 12.1419C12.6918 12.2 12.7423 12.2789 12.7655 12.3674L13.9123 16.7479L15.0273 14.8044C15.0637 14.7412 15.1155 14.6882 15.1778 14.6503C15.2401 14.6124 15.311 14.5908 15.3838 14.5876C15.4567 14.5848 15.529 14.6001 15.5944 14.6322C15.6598 14.6643 15.7162 14.7122 15.7586 14.7715L16.8637 16.3419L18.2082 12.9525C18.2417 12.868 18.3008 12.7962 18.3772 12.7472C18.4537 12.6981 18.5436 12.6743 18.6343 12.6791C18.725 12.6839 18.8119 12.7171 18.8828 12.7739C18.9536 12.8307 19.0048 12.9083 19.0292 12.9958L19.6499 15.2234H22.1736C22.2887 15.2234 22.399 15.2691 22.4803 15.3504C22.5617 15.4318 22.6074 15.5421 22.6074 15.6571C22.6074 15.7721 22.5617 15.8825 22.4803 15.9638C22.399 16.0451 22.2887 16.0908 22.1736 16.0908H19.3202C19.2255 16.0908 19.1334 16.0597 19.058 16.0024C18.9825 15.9451 18.928 15.8646 18.9026 15.7733L18.5404 14.47L17.3733 17.4076C17.3445 17.4803 17.2965 17.5438 17.2345 17.5914C17.1726 17.6391 17.0988 17.6691 17.0212 17.6783C16.9436 17.6875 16.8649 17.6755 16.7935 17.6437C16.7221 17.6118 16.6606 17.5613 16.6156 17.4974L15.4402 15.8276L14.1361 18.0994C14.0982 18.1655 14.0436 18.2204 13.9777 18.2587C13.9119 18.297 13.8371 18.3173 13.7609 18.3175Z" fill="#4F5756"/>
</svg>
