<svg width="31" height="31" viewBox="0 0 31 31" fill="none" xmlns="http://www.w3.org/2000/svg">
<path d="M16.9469 30.36H13.413C13.2052 30.361 13.004 30.287 12.8464 30.1516C12.6888 30.0161 12.5853 29.8283 12.5551 29.6227L12.1843 27.1371C11.0087 26.8441 9.88313 26.3778 8.84473 25.7535L6.82362 27.249C6.65631 27.3711 6.451 27.4298 6.2444 27.4145C6.0378 27.3991 5.8434 27.3108 5.69596 27.1653L3.19691 24.6645C3.05129 24.5171 2.9629 24.3227 2.94756 24.116C2.93222 23.9094 2.99094 23.7041 3.1132 23.5368L4.60821 21.5161C3.98403 20.4777 3.51775 19.3522 3.22466 18.1765L0.739482 17.8053C0.534255 17.7736 0.347053 17.6698 0.211511 17.5124C0.0759701 17.3551 0.000974691 17.1546 0 16.947V13.413C0.00107759 13.2055 0.0761195 13.0051 0.211652 12.8478C0.347184 12.6906 0.534328 12.5868 0.739482 12.5552L3.22466 12.1839C3.51767 11.0083 3.98396 9.88273 4.60821 8.84431L3.1132 6.82493C2.99053 6.65742 2.93157 6.45166 2.94691 6.2446C2.96225 6.03754 3.05089 5.84272 3.19691 5.69511L5.69553 3.19692C5.84296 3.05139 6.03732 2.96303 6.2439 2.94762C6.45047 2.9322 6.6558 2.99074 6.82319 3.11278L8.84776 4.60822C9.88616 3.98392 11.0117 3.51763 12.1874 3.22467L12.5551 0.737325C12.5853 0.531701 12.6888 0.34389 12.8464 0.208427C13.004 0.0729635 13.2052 -0.00104461 13.413 1.11414e-05H16.9469C17.1548 -0.00104461 17.356 0.0729635 17.5136 0.208427C17.6712 0.34389 17.7746 0.531701 17.8048 0.737325L18.1756 3.22294C19.3513 3.5159 20.4768 3.98219 21.5152 4.60649L23.5364 3.11104C23.7037 2.98887 23.909 2.9302 24.1156 2.94554C24.3222 2.96087 24.5166 3.04921 24.664 3.19475L27.1626 5.69381C27.3082 5.8412 27.3966 6.03561 27.412 6.24223C27.4273 6.44886 27.3686 6.65419 27.2463 6.82147L25.7513 8.8417C26.3756 9.88013 26.8419 11.0056 27.1349 12.1813L29.6201 12.5526C29.8257 12.5842 30.0133 12.6883 30.149 12.8461C30.2847 13.0039 30.3595 13.205 30.36 13.413V16.947C30.359 17.1542 30.2842 17.3544 30.1491 17.5115C30.014 17.6687 29.8274 17.7727 29.6227 17.8048L27.1375 18.1761C26.8444 19.3517 26.3781 20.4772 25.7539 21.5157L27.2489 23.5364C27.371 23.7037 27.4296 23.909 27.4143 24.1156C27.399 24.3222 27.3107 24.5165 27.1652 24.664L24.6666 27.1622C24.5193 27.308 24.3249 27.3965 24.1183 27.4119C23.9116 27.4273 23.7062 27.3686 23.539 27.2464L21.5183 25.7509C20.4799 26.3752 19.3544 26.8415 18.1787 27.1345L17.8048 29.6227C17.7746 29.8283 17.6712 30.0161 17.5136 30.1516C17.356 30.287 17.1548 30.361 16.9469 30.36ZM8.82347 24.7946C8.90567 24.7947 8.98614 24.8181 9.05551 24.8622C10.1631 25.5655 11.3841 26.0716 12.6644 26.3581C12.7499 26.3772 12.8276 26.4217 12.8873 26.4858C12.947 26.5499 12.9859 26.6306 12.9988 26.7172L13.4135 29.493H16.9469L17.3611 26.7172C17.3741 26.6306 17.413 26.5499 17.4727 26.4858C17.5323 26.4217 17.61 26.3772 17.6955 26.3581C18.9758 26.0716 20.1969 25.5655 21.3045 24.8622C21.3784 24.8154 21.4648 24.792 21.5523 24.7952C21.6397 24.7984 21.7242 24.8279 21.7946 24.88L24.0499 26.5498L26.5485 24.0512L24.8787 21.7959C24.8266 21.7255 24.7971 21.6411 24.7939 21.5536C24.7907 21.4661 24.8141 21.3797 24.8609 21.3058C25.5647 20.1979 26.0711 18.9764 26.3577 17.6955C26.3768 17.61 26.4214 17.5323 26.4856 17.4726C26.5497 17.4129 26.6305 17.374 26.7172 17.3611L29.493 16.947V13.413L26.7172 12.9989C26.6305 12.986 26.5497 12.9471 26.4856 12.8874C26.4214 12.8277 26.3768 12.75 26.3577 12.6645C26.0712 11.384 25.5653 10.1629 24.8622 9.05509C24.8155 8.98119 24.7922 8.89489 24.7953 8.80751C24.7985 8.72013 24.828 8.63574 24.88 8.56543L26.5498 6.31012L24.0512 3.81149L21.7959 5.48129C21.7255 5.53336 21.641 5.56293 21.5536 5.5661C21.4661 5.56927 21.3797 5.54591 21.3058 5.49907C20.1979 4.79525 18.9764 4.2887 17.6955 4.00189C17.61 3.9828 17.5323 3.93827 17.4727 3.87417C17.413 3.81007 17.3741 3.7294 17.3611 3.64277L16.9465 0.867439H13.413L12.9988 3.64321C12.9859 3.72983 12.947 3.8105 12.8873 3.8746C12.8276 3.9387 12.7499 3.98323 12.6644 4.00232C11.3841 4.28887 10.1631 4.79497 9.05551 5.4982C8.98157 5.54504 8.89518 5.56841 8.80771 5.56523C8.72024 5.56206 8.63577 5.53249 8.56542 5.48042L6.3101 3.81062L3.81148 6.30925L5.48128 8.56456C5.53325 8.63487 5.56277 8.71926 5.56594 8.80664C5.56911 8.89402 5.5458 8.98032 5.49906 9.05422C4.79543 10.1622 4.28903 11.3837 4.00231 12.6645C3.98319 12.75 3.9386 12.8277 3.87441 12.8874C3.81023 12.9471 3.72946 12.986 3.64276 12.9989L0.867428 13.413V16.947L3.6432 17.3611C3.7299 17.374 3.81066 17.4129 3.87485 17.4726C3.93903 17.5323 3.98362 17.61 4.00275 17.6955C4.28908 18.9759 4.79504 20.1969 5.49819 21.3045C5.54503 21.3784 5.56839 21.4648 5.56522 21.5523C5.56205 21.6398 5.53248 21.7242 5.48041 21.7946L3.81061 24.0499L6.30924 26.5485L8.56455 24.8787C8.63959 24.8236 8.73037 24.7941 8.82347 24.7946Z" fill="#4F5756"/>
<path d="M18.2377 23.3818C18.1361 23.382 18.0377 23.3466 17.9596 23.2817C17.8815 23.2169 17.8286 23.1266 17.8101 23.0268C17.7917 22.9269 17.8089 22.8237 17.8588 22.7352C17.9086 22.6468 17.9879 22.5786 18.0829 22.5426C18.4786 22.3921 18.8594 22.205 19.2205 21.9839C19.2689 21.95 19.3237 21.9264 19.3816 21.9145C19.4395 21.9025 19.4992 21.9025 19.5571 21.9145C19.615 21.9265 19.6698 21.9502 19.7182 21.9841C19.7666 22.018 19.8075 22.0615 19.8385 22.1118C19.8695 22.1621 19.8899 22.2182 19.8984 22.2767C19.9069 22.3352 19.9034 22.3948 19.888 22.4519C19.8727 22.509 19.8458 22.5623 19.8091 22.6086C19.7724 22.6549 19.7266 22.6933 19.6746 22.7212C19.2675 22.9705 18.8382 23.1813 18.3921 23.351C18.343 23.3707 18.2906 23.3811 18.2377 23.3818Z" fill="#4F5756"/>
<path d="M14.4952 23.9323H14.4596C12.7592 23.7921 11.1365 23.1597 9.78968 22.1123C8.44289 21.0649 7.43035 19.6479 6.87582 18.0344C6.32128 16.4209 6.24876 14.6808 6.66712 13.0267C7.08547 11.3727 7.97659 9.87632 9.23156 8.72049C10.4865 7.56465 12.051 6.79942 13.7338 6.51829C15.4167 6.23717 17.1449 6.45233 18.7075 7.13747C20.27 7.82262 21.5991 8.94809 22.5324 10.3763C23.4656 11.8046 23.9627 13.4738 23.9627 15.1799C23.9627 15.4714 23.9488 15.7624 23.9215 16.0473C23.9175 16.1052 23.902 16.1616 23.8758 16.2133C23.8497 16.2651 23.8134 16.311 23.7692 16.3485C23.725 16.386 23.6737 16.4142 23.6184 16.4315C23.5631 16.4488 23.5048 16.4549 23.4471 16.4493C23.3895 16.4437 23.3335 16.4267 23.2825 16.3991C23.2315 16.3715 23.1866 16.334 23.1503 16.2888C23.1141 16.2435 23.0873 16.1915 23.0715 16.1357C23.0557 16.08 23.0513 16.0216 23.0584 15.9641C23.0831 15.7086 23.0953 15.4436 23.0953 15.1834C23.0963 13.6454 22.6492 12.1404 21.8087 10.8524C20.9682 9.56439 19.7707 8.54915 18.3625 7.93077C16.9543 7.31239 15.3964 7.11767 13.8793 7.3704C12.3622 7.62313 10.9516 8.31236 9.81994 9.35386C8.68826 10.3954 7.8845 11.744 7.50694 13.2349C7.12937 14.7259 7.19434 16.2945 7.6939 17.7491C8.19347 19.2037 9.10599 20.4812 10.3199 21.4256C11.5339 22.3699 12.9966 22.9402 14.5294 23.0666C14.5864 23.0688 14.6423 23.0823 14.6941 23.1062C14.7458 23.1301 14.7924 23.164 14.831 23.2059C14.8697 23.2478 14.8997 23.2968 14.9194 23.3503C14.9391 23.4038 14.9481 23.4607 14.9458 23.5176C14.9435 23.5746 14.93 23.6305 14.9061 23.6823C14.8822 23.734 14.8484 23.7806 14.8065 23.8192C14.7646 23.8579 14.7155 23.8879 14.662 23.9076C14.6085 23.9273 14.5517 23.9363 14.4947 23.934L14.4952 23.9323Z" fill="#4F5756"/>
<path d="M21.7329 20.7792C21.6511 20.7791 21.571 20.7559 21.5018 20.7122C21.4327 20.6685 21.3773 20.6062 21.342 20.5323C21.3068 20.4585 21.2932 20.3762 21.3027 20.295C21.3122 20.2137 21.3446 20.1368 21.3959 20.0731C21.653 19.754 21.8833 19.4141 22.0842 19.057C22.1117 19.0063 22.1489 18.9617 22.1938 18.9256C22.2386 18.8896 22.2902 18.8628 22.3455 18.8468C22.4008 18.8309 22.4588 18.8261 22.5159 18.8328C22.5731 18.8395 22.6284 18.8575 22.6785 18.8858C22.7287 18.9141 22.7727 18.952 22.808 18.9975C22.8433 19.0429 22.8693 19.095 22.8843 19.1505C22.8993 19.2061 22.9031 19.2641 22.8954 19.3212C22.8878 19.3782 22.8689 19.4332 22.8398 19.4829C22.6154 19.8818 22.3584 20.2615 22.0712 20.6179C22.0305 20.6684 21.979 20.7091 21.9204 20.737C21.8619 20.7649 21.7978 20.7793 21.7329 20.7792Z" fill="#4F5756"/>
</svg>
